<mxfile host="app.diagrams.net" agent="Mozilla/5.0 (Windows NT 10.0; Win64; x64) AppleWebKit/537.36 (KHTML, like Gecko) Chrome/135.0.0.0 Safari/537.36" version="26.2.14">
  <diagram name="Page-1" id="zzEKwlbeFd6CqcHf-zqJ">
    <mxGraphModel dx="1678" dy="914" grid="1" gridSize="10" guides="1" tooltips="1" connect="1" arrows="1" fold="1" page="1" pageScale="1" pageWidth="850" pageHeight="1100" math="0" shadow="0">
      <root>
        <mxCell id="0" />
        <mxCell id="1" parent="0" />
        <mxCell id="QQ_peA4Y2cugDTk5l_Di-2" value="" style="rounded=0;whiteSpace=wrap;html=1;fillColor=#dae8fc;strokeColor=#6c8ebf;" vertex="1" parent="1">
          <mxGeometry x="30" y="90" width="790" height="570" as="geometry" />
        </mxCell>
        <mxCell id="QQ_peA4Y2cugDTk5l_Di-3" value="&lt;font style=&quot;font-size: 18px;&quot;&gt;SITE 1&lt;/font&gt;" style="text;html=1;align=center;verticalAlign=middle;resizable=0;points=[];autosize=1;strokeColor=none;fillColor=none;" vertex="1" parent="1">
          <mxGeometry x="30" y="90" width="80" height="40" as="geometry" />
        </mxCell>
        <mxCell id="QQ_peA4Y2cugDTk5l_Di-4" value="" style="rounded=0;whiteSpace=wrap;html=1;fillColor=#d5e8d4;strokeColor=#82b366;" vertex="1" parent="1">
          <mxGeometry x="40" y="130" width="110" height="520" as="geometry" />
        </mxCell>
        <mxCell id="QQ_peA4Y2cugDTk5l_Di-5" value="" style="rounded=0;whiteSpace=wrap;html=1;fillColor=#d5e8d4;strokeColor=#82b366;" vertex="1" parent="1">
          <mxGeometry x="160" y="130" width="530" height="520" as="geometry" />
        </mxCell>
        <mxCell id="QQ_peA4Y2cugDTk5l_Di-6" value="" style="rounded=0;whiteSpace=wrap;html=1;fillColor=#d5e8d4;strokeColor=#82b366;" vertex="1" parent="1">
          <mxGeometry x="700" y="130" width="110" height="520" as="geometry" />
        </mxCell>
        <mxCell id="QQ_peA4Y2cugDTk5l_Di-8" value="&lt;span style=&quot;text-wrap-mode: wrap; font-size: 18px;&quot;&gt;ZONE1&lt;/span&gt;&lt;br style=&quot;text-wrap-mode: wrap;&quot;&gt;&lt;font style=&quot;text-wrap-mode: wrap; font-size: 15px;&quot;&gt;Receiving&lt;/font&gt;" style="text;html=1;align=center;verticalAlign=middle;resizable=0;points=[];autosize=1;strokeColor=none;fillColor=none;" vertex="1" parent="1">
          <mxGeometry x="40" y="130" width="90" height="50" as="geometry" />
        </mxCell>
        <mxCell id="QQ_peA4Y2cugDTk5l_Di-9" value="&lt;span style=&quot;text-wrap-mode: wrap; font-size: 18px;&quot;&gt;ZONE2&lt;/span&gt;&lt;br style=&quot;text-wrap-mode: wrap;&quot;&gt;&lt;font style=&quot;text-wrap-mode: wrap; font-size: 15px;&quot;&gt;Production&lt;/font&gt;" style="text;html=1;align=center;verticalAlign=middle;resizable=0;points=[];autosize=1;strokeColor=none;fillColor=none;" vertex="1" parent="1">
          <mxGeometry x="160" y="130" width="100" height="50" as="geometry" />
        </mxCell>
        <mxCell id="QQ_peA4Y2cugDTk5l_Di-11" value="&lt;span style=&quot;text-wrap-mode: wrap; font-size: 18px;&quot;&gt;ZONE3&lt;/span&gt;&lt;br style=&quot;text-wrap-mode: wrap;&quot;&gt;&lt;span style=&quot;font-size: 15px; text-wrap-mode: wrap;&quot;&gt;Storage&lt;/span&gt;" style="text;html=1;align=center;verticalAlign=middle;resizable=0;points=[];autosize=1;strokeColor=none;fillColor=none;" vertex="1" parent="1">
          <mxGeometry x="700" y="130" width="80" height="50" as="geometry" />
        </mxCell>
        <mxCell id="QQ_peA4Y2cugDTk5l_Di-12" value="" style="rounded=0;whiteSpace=wrap;html=1;fillColor=#ffe6cc;strokeColor=#d79b00;" vertex="1" parent="1">
          <mxGeometry x="170" y="180" width="80" height="460" as="geometry" />
        </mxCell>
        <mxCell id="QQ_peA4Y2cugDTk5l_Di-13" value="" style="rounded=0;whiteSpace=wrap;html=1;fillColor=#ffe6cc;strokeColor=#d79b00;" vertex="1" parent="1">
          <mxGeometry x="600" y="180" width="80" height="460" as="geometry" />
        </mxCell>
        <mxCell id="QQ_peA4Y2cugDTk5l_Di-14" value="" style="rounded=0;whiteSpace=wrap;html=1;fillColor=#ffe6cc;strokeColor=#d79b00;" vertex="1" parent="1">
          <mxGeometry x="260" y="180" width="330" height="460" as="geometry" />
        </mxCell>
        <mxCell id="QQ_peA4Y2cugDTk5l_Di-15" value="&lt;span style=&quot;text-wrap-mode: wrap; font-size: 18px;&quot;&gt;AREA1&lt;/span&gt;&lt;br style=&quot;text-wrap-mode: wrap;&quot;&gt;&lt;span style=&quot;text-wrap-mode: wrap; font-size: 15px;&quot;&gt;Infeed&lt;/span&gt;" style="text;html=1;align=center;verticalAlign=middle;resizable=0;points=[];autosize=1;strokeColor=none;fillColor=none;" vertex="1" parent="1">
          <mxGeometry x="170" y="180" width="80" height="50" as="geometry" />
        </mxCell>
        <mxCell id="QQ_peA4Y2cugDTk5l_Di-16" value="&lt;span style=&quot;text-wrap-mode: wrap; font-size: 18px;&quot;&gt;AREA2&lt;/span&gt;&lt;br style=&quot;text-wrap-mode: wrap;&quot;&gt;&lt;span style=&quot;text-wrap-mode: wrap; font-size: 15px;&quot;&gt;Process&lt;/span&gt;" style="text;html=1;align=center;verticalAlign=middle;resizable=0;points=[];autosize=1;strokeColor=none;fillColor=none;" vertex="1" parent="1">
          <mxGeometry x="260" y="180" width="80" height="50" as="geometry" />
        </mxCell>
        <mxCell id="QQ_peA4Y2cugDTk5l_Di-17" value="&lt;span style=&quot;text-wrap-mode: wrap; font-size: 18px;&quot;&gt;AREA3&lt;/span&gt;&lt;br style=&quot;text-wrap-mode: wrap;&quot;&gt;&lt;span style=&quot;text-wrap-mode: wrap; font-size: 15px;&quot;&gt;Outfeed&lt;/span&gt;" style="text;html=1;align=center;verticalAlign=middle;resizable=0;points=[];autosize=1;strokeColor=none;fillColor=none;" vertex="1" parent="1">
          <mxGeometry x="600" y="180" width="80" height="50" as="geometry" />
        </mxCell>
        <mxCell id="QQ_peA4Y2cugDTk5l_Di-18" value="" style="rounded=0;whiteSpace=wrap;html=1;fillColor=#fff2cc;strokeColor=#d6b656;" vertex="1" parent="1">
          <mxGeometry x="270" y="230" width="80" height="400" as="geometry" />
        </mxCell>
        <mxCell id="QQ_peA4Y2cugDTk5l_Di-19" value="&lt;span style=&quot;text-wrap-mode: wrap; font-size: 18px;&quot;&gt;Line 1&lt;/span&gt;&lt;br style=&quot;text-wrap-mode: wrap;&quot;&gt;&lt;span style=&quot;text-wrap-mode: wrap; font-size: 15px;&quot;&gt;Equipments&lt;/span&gt;" style="text;html=1;align=center;verticalAlign=middle;resizable=0;points=[];autosize=1;strokeColor=none;fillColor=none;" vertex="1" parent="1">
          <mxGeometry x="260" y="230" width="100" height="50" as="geometry" />
        </mxCell>
        <mxCell id="QQ_peA4Y2cugDTk5l_Di-20" value="" style="rounded=0;whiteSpace=wrap;html=1;fillColor=#fff2cc;strokeColor=#d6b656;" vertex="1" parent="1">
          <mxGeometry x="360" y="230" width="130" height="400" as="geometry" />
        </mxCell>
        <mxCell id="QQ_peA4Y2cugDTk5l_Di-21" value="&lt;span style=&quot;text-wrap-mode: wrap; font-size: 18px;&quot;&gt;Line 2&lt;/span&gt;&lt;br style=&quot;text-wrap-mode: wrap;&quot;&gt;&lt;span style=&quot;text-wrap-mode: wrap; font-size: 15px;&quot;&gt;Equipments&lt;/span&gt;" style="text;html=1;align=center;verticalAlign=middle;resizable=0;points=[];autosize=1;strokeColor=none;fillColor=none;" vertex="1" parent="1">
          <mxGeometry x="360" y="230" width="100" height="50" as="geometry" />
        </mxCell>
        <mxCell id="QQ_peA4Y2cugDTk5l_Di-22" value="" style="rounded=0;whiteSpace=wrap;html=1;fillColor=#fff2cc;strokeColor=#d6b656;" vertex="1" parent="1">
          <mxGeometry x="500" y="230" width="80" height="400" as="geometry" />
        </mxCell>
        <mxCell id="QQ_peA4Y2cugDTk5l_Di-23" value="&lt;span style=&quot;text-wrap-mode: wrap; font-size: 18px;&quot;&gt;Line 3&lt;/span&gt;&lt;br style=&quot;text-wrap-mode: wrap;&quot;&gt;&lt;span style=&quot;text-wrap-mode: wrap; font-size: 15px;&quot;&gt;Equipments&lt;/span&gt;" style="text;html=1;align=center;verticalAlign=middle;resizable=0;points=[];autosize=1;strokeColor=none;fillColor=none;" vertex="1" parent="1">
          <mxGeometry x="490" y="230" width="100" height="50" as="geometry" />
        </mxCell>
        <mxCell id="QQ_peA4Y2cugDTk5l_Di-24" value="&lt;font style=&quot;&quot;&gt;&lt;span style=&quot;font-size: 18px;&quot;&gt;Equipment 1&amp;nbsp;&lt;br&gt;&lt;/span&gt;&lt;span style=&quot;font-size: 15px;&quot;&gt;Tipper&lt;/span&gt;&lt;/font&gt;" style="rounded=0;whiteSpace=wrap;html=1;fillColor=#f8cecc;strokeColor=#b85450;" vertex="1" parent="1">
          <mxGeometry x="370" y="280" width="110" height="50" as="geometry" />
        </mxCell>
        <mxCell id="QQ_peA4Y2cugDTk5l_Di-25" value="&lt;font style=&quot;&quot;&gt;&lt;span style=&quot;font-size: 18px;&quot;&gt;Equipment 2&amp;nbsp;&lt;br&gt;&lt;/span&gt;&lt;span style=&quot;font-size: 15px;&quot;&gt;Splitter&lt;/span&gt;&lt;/font&gt;" style="rounded=0;whiteSpace=wrap;html=1;fillColor=#f8cecc;strokeColor=#b85450;" vertex="1" parent="1">
          <mxGeometry x="370" y="340" width="110" height="50" as="geometry" />
        </mxCell>
        <mxCell id="QQ_peA4Y2cugDTk5l_Di-26" value="" style="rounded=0;whiteSpace=wrap;html=1;fillColor=#f8cecc;strokeColor=#b85450;" vertex="1" parent="1">
          <mxGeometry x="370" y="400" width="110" height="160" as="geometry" />
        </mxCell>
        <mxCell id="QQ_peA4Y2cugDTk5l_Di-27" value="&lt;font style=&quot;&quot;&gt;&lt;span style=&quot;font-size: 18px;&quot;&gt;Equipment 4&amp;nbsp;&lt;br&gt;&lt;/span&gt;&lt;span style=&quot;font-size: 15px;&quot;&gt;Recirculation&lt;/span&gt;&lt;/font&gt;" style="rounded=0;whiteSpace=wrap;html=1;fillColor=#f8cecc;strokeColor=#b85450;" vertex="1" parent="1">
          <mxGeometry x="370" y="570" width="110" height="50" as="geometry" />
        </mxCell>
        <mxCell id="QQ_peA4Y2cugDTk5l_Di-29" value="&lt;span style=&quot;text-wrap-mode: wrap; font-size: 18px;&quot;&gt;Equipment3&amp;nbsp;&lt;br&gt;&lt;/span&gt;&lt;span style=&quot;text-wrap-mode: wrap; font-size: 15px;&quot;&gt;Singulator&lt;/span&gt;" style="text;html=1;align=center;verticalAlign=middle;resizable=0;points=[];autosize=1;strokeColor=none;fillColor=none;" vertex="1" parent="1">
          <mxGeometry x="365" y="400" width="120" height="50" as="geometry" />
        </mxCell>
        <mxCell id="QQ_peA4Y2cugDTk5l_Di-34" value="" style="rounded=0;whiteSpace=wrap;html=1;fillColor=#e1d5e7;strokeColor=#9673a6;" vertex="1" parent="1">
          <mxGeometry x="380" y="450" width="90" height="100" as="geometry" />
        </mxCell>
        <mxCell id="QQ_peA4Y2cugDTk5l_Di-35" value="&lt;font&gt;Cell 1&amp;nbsp;&lt;br&gt;PLC&lt;/font&gt;" style="rounded=0;whiteSpace=wrap;html=1;fillColor=#6d8764;strokeColor=#3A5431;fontColor=#ffffff;fontSize=10;" vertex="1" parent="1">
          <mxGeometry x="395" y="500" width="60" height="40" as="geometry" />
        </mxCell>
        <mxCell id="QQ_peA4Y2cugDTk5l_Di-36" value="&lt;font&gt;&lt;span style=&quot;text-wrap-mode: wrap;&quot;&gt;Unit 1&amp;nbsp;&lt;br&gt;&lt;/span&gt;&lt;span style=&quot;text-wrap-mode: wrap;&quot;&gt;Control Cabinet&lt;/span&gt;&lt;/font&gt;" style="text;html=1;align=center;verticalAlign=middle;resizable=0;points=[];autosize=1;strokeColor=none;fillColor=none;fontSize=12;" vertex="1" parent="1">
          <mxGeometry x="370" y="450" width="110" height="40" as="geometry" />
        </mxCell>
      </root>
    </mxGraphModel>
  </diagram>
</mxfile>
